<mxfile host="app.diagrams.net" agent="Mozilla/5.0 (Windows NT 10.0; Win64; x64) AppleWebKit/537.36 (KHTML, like Gecko) Chrome/140.0.0.0 Safari/537.36 Edg/140.0.0.0" version="28.2.3">
  <diagram name="第 1 页" id="3C85452dedP2BdvEUXxC">
    <mxGraphModel dx="1205" dy="773" grid="1" gridSize="10" guides="1" tooltips="1" connect="1" arrows="1" fold="1" page="1" pageScale="1" pageWidth="827" pageHeight="1169" math="0" shadow="0">
      <root>
        <mxCell id="0" />
        <mxCell id="1" parent="0" />
        <mxCell id="aO45Ni_4_YtZBOvJ0jxf-1" value="idle_list" style="text;html=1;align=center;verticalAlign=middle;whiteSpace=wrap;rounded=0;fontSize=20;" vertex="1" parent="1">
          <mxGeometry x="300" y="705" width="100" height="40" as="geometry" />
        </mxCell>
        <mxCell id="aO45Ni_4_YtZBOvJ0jxf-4" value="buffer2" style="rounded=0;whiteSpace=wrap;html=1;fontSize=15;fillColor=#d5e8d4;strokeColor=#82b366;" vertex="1" parent="1">
          <mxGeometry x="620" y="705" width="100" height="40" as="geometry" />
        </mxCell>
        <mxCell id="aO45Ni_4_YtZBOvJ0jxf-5" value="" style="endArrow=classic;html=1;rounded=0;exitX=1;exitY=0.5;exitDx=0;exitDy=0;" edge="1" parent="1" source="aO45Ni_4_YtZBOvJ0jxf-1">
          <mxGeometry width="50" height="50" relative="1" as="geometry">
            <mxPoint x="560" y="724.58" as="sourcePoint" />
            <mxPoint x="620" y="724.58" as="targetPoint" />
          </mxGeometry>
        </mxCell>
        <mxCell id="aO45Ni_4_YtZBOvJ0jxf-6" value="buffer3" style="rounded=0;whiteSpace=wrap;html=1;fontSize=15;fillColor=#dae8fc;strokeColor=#6c8ebf;" vertex="1" parent="1">
          <mxGeometry x="780" y="705" width="100" height="40" as="geometry" />
        </mxCell>
        <mxCell id="aO45Ni_4_YtZBOvJ0jxf-7" value="" style="endArrow=classic;html=1;rounded=0;exitX=1;exitY=0.5;exitDx=0;exitDy=0;" edge="1" parent="1">
          <mxGeometry width="50" height="50" relative="1" as="geometry">
            <mxPoint x="720" y="724.58" as="sourcePoint" />
            <mxPoint x="780" y="724.58" as="targetPoint" />
          </mxGeometry>
        </mxCell>
        <mxCell id="aO45Ni_4_YtZBOvJ0jxf-8" value="list" style="rounded=0;whiteSpace=wrap;html=1;fontSize=15;" vertex="1" parent="1">
          <mxGeometry x="390" y="350" width="100" height="40" as="geometry" />
        </mxCell>
        <mxCell id="aO45Ni_4_YtZBOvJ0jxf-9" value="list" style="rounded=0;whiteSpace=wrap;html=1;fontSize=15;" vertex="1" parent="1">
          <mxGeometry x="490" y="350" width="100" height="40" as="geometry" />
        </mxCell>
        <mxCell id="aO45Ni_4_YtZBOvJ0jxf-10" value="list" style="rounded=0;whiteSpace=wrap;html=1;fontSize=15;" vertex="1" parent="1">
          <mxGeometry x="590" y="350" width="100" height="40" as="geometry" />
        </mxCell>
        <mxCell id="aO45Ni_4_YtZBOvJ0jxf-11" value="..." style="rounded=0;whiteSpace=wrap;html=1;fontSize=15;" vertex="1" parent="1">
          <mxGeometry x="690" y="350" width="100" height="40" as="geometry" />
        </mxCell>
        <mxCell id="aO45Ni_4_YtZBOvJ0jxf-12" value="buffer1" style="rounded=0;whiteSpace=wrap;html=1;fontSize=15;fillColor=#ffe6cc;strokeColor=#d79b00;" vertex="1" parent="1">
          <mxGeometry x="390" y="450" width="100" height="40" as="geometry" />
        </mxCell>
        <mxCell id="aO45Ni_4_YtZBOvJ0jxf-13" value="buffer2" style="rounded=0;whiteSpace=wrap;html=1;fontSize=15;fillColor=#d5e8d4;strokeColor=#82b366;" vertex="1" parent="1">
          <mxGeometry x="590" y="450" width="100" height="40" as="geometry" />
        </mxCell>
        <mxCell id="aO45Ni_4_YtZBOvJ0jxf-14" value="buffer3" style="rounded=0;whiteSpace=wrap;html=1;fontSize=15;fillColor=#dae8fc;strokeColor=#6c8ebf;" vertex="1" parent="1">
          <mxGeometry x="590" y="550" width="100" height="40" as="geometry" />
        </mxCell>
        <mxCell id="aO45Ni_4_YtZBOvJ0jxf-15" value="" style="endArrow=classic;html=1;rounded=0;exitX=0.5;exitY=1;exitDx=0;exitDy=0;entryX=0.5;entryY=0;entryDx=0;entryDy=0;" edge="1" parent="1" source="aO45Ni_4_YtZBOvJ0jxf-8" target="aO45Ni_4_YtZBOvJ0jxf-12">
          <mxGeometry width="50" height="50" relative="1" as="geometry">
            <mxPoint x="560" y="480" as="sourcePoint" />
            <mxPoint x="610" y="430" as="targetPoint" />
          </mxGeometry>
        </mxCell>
        <mxCell id="aO45Ni_4_YtZBOvJ0jxf-16" value="" style="endArrow=classic;html=1;rounded=0;exitX=0.5;exitY=1;exitDx=0;exitDy=0;entryX=0.5;entryY=0;entryDx=0;entryDy=0;" edge="1" parent="1" source="aO45Ni_4_YtZBOvJ0jxf-10" target="aO45Ni_4_YtZBOvJ0jxf-13">
          <mxGeometry width="50" height="50" relative="1" as="geometry">
            <mxPoint x="560" y="480" as="sourcePoint" />
            <mxPoint x="610" y="430" as="targetPoint" />
          </mxGeometry>
        </mxCell>
        <mxCell id="aO45Ni_4_YtZBOvJ0jxf-17" value="" style="endArrow=classic;html=1;rounded=0;exitX=0.5;exitY=1;exitDx=0;exitDy=0;entryX=0.5;entryY=0;entryDx=0;entryDy=0;" edge="1" parent="1">
          <mxGeometry width="50" height="50" relative="1" as="geometry">
            <mxPoint x="639.58" y="490" as="sourcePoint" />
            <mxPoint x="639.58" y="550" as="targetPoint" />
          </mxGeometry>
        </mxCell>
        <mxCell id="aO45Ni_4_YtZBOvJ0jxf-18" value="buffer4" style="rounded=0;whiteSpace=wrap;html=1;fontSize=15;fillColor=#f8cecc;strokeColor=#b85450;" vertex="1" parent="1">
          <mxGeometry x="490" y="500" width="100" height="40" as="geometry" />
        </mxCell>
        <mxCell id="aO45Ni_4_YtZBOvJ0jxf-19" value="" style="endArrow=classic;html=1;rounded=0;exitX=0.5;exitY=1;exitDx=0;exitDy=0;entryX=0.5;entryY=0;entryDx=0;entryDy=0;" edge="1" parent="1" target="aO45Ni_4_YtZBOvJ0jxf-18">
          <mxGeometry width="50" height="50" relative="1" as="geometry">
            <mxPoint x="539.58" y="390" as="sourcePoint" />
            <mxPoint x="539.58" y="450" as="targetPoint" />
          </mxGeometry>
        </mxCell>
        <mxCell id="aO45Ni_4_YtZBOvJ0jxf-20" value="" style="endArrow=none;html=1;rounded=0;dashed=1;dashPattern=8 8;" edge="1" parent="1">
          <mxGeometry width="50" height="50" relative="1" as="geometry">
            <mxPoint x="310" y="640" as="sourcePoint" />
            <mxPoint x="870" y="640" as="targetPoint" />
          </mxGeometry>
        </mxCell>
        <mxCell id="aO45Ni_4_YtZBOvJ0jxf-21" value="" style="endArrow=none;html=1;rounded=0;dashed=1;dashPattern=8 8;" edge="1" parent="1">
          <mxGeometry width="50" height="50" relative="1" as="geometry">
            <mxPoint x="310" y="280" as="sourcePoint" />
            <mxPoint x="870" y="280" as="targetPoint" />
          </mxGeometry>
        </mxCell>
        <mxCell id="aO45Ni_4_YtZBOvJ0jxf-22" value="" style="endArrow=none;html=1;rounded=0;dashed=1;dashPattern=8 8;" edge="1" parent="1">
          <mxGeometry width="50" height="50" relative="1" as="geometry">
            <mxPoint x="310" y="280" as="sourcePoint" />
            <mxPoint x="310" y="640" as="targetPoint" />
          </mxGeometry>
        </mxCell>
        <mxCell id="aO45Ni_4_YtZBOvJ0jxf-23" value="" style="endArrow=none;html=1;rounded=0;dashed=1;dashPattern=8 8;" edge="1" parent="1">
          <mxGeometry width="50" height="50" relative="1" as="geometry">
            <mxPoint x="870" y="280" as="sourcePoint" />
            <mxPoint x="870" y="640" as="targetPoint" />
          </mxGeometry>
        </mxCell>
        <mxCell id="aO45Ni_4_YtZBOvJ0jxf-24" value="哈希表" style="text;html=1;align=center;verticalAlign=middle;whiteSpace=wrap;rounded=0;fontSize=20;" vertex="1" parent="1">
          <mxGeometry x="310" y="280" width="100" height="30" as="geometry" />
        </mxCell>
        <mxCell id="aO45Ni_4_YtZBOvJ0jxf-25" value="block1" style="rounded=0;whiteSpace=wrap;html=1;fontSize=15;fillColor=#ffe6cc;strokeColor=#d79b00;" vertex="1" parent="1">
          <mxGeometry x="390" y="840" width="100" height="40" as="geometry" />
        </mxCell>
        <mxCell id="aO45Ni_4_YtZBOvJ0jxf-26" value="block2" style="rounded=0;whiteSpace=wrap;html=1;fontSize=15;fillColor=#d5e8d4;strokeColor=#82b366;" vertex="1" parent="1">
          <mxGeometry x="490" y="840" width="100" height="40" as="geometry" />
        </mxCell>
        <mxCell id="aO45Ni_4_YtZBOvJ0jxf-27" value="block3" style="rounded=0;whiteSpace=wrap;html=1;fontSize=15;fillColor=#dae8fc;strokeColor=#6c8ebf;" vertex="1" parent="1">
          <mxGeometry x="580" y="840" width="100" height="40" as="geometry" />
        </mxCell>
        <mxCell id="aO45Ni_4_YtZBOvJ0jxf-28" value="block4" style="rounded=0;whiteSpace=wrap;html=1;fontSize=15;fillColor=#f8cecc;strokeColor=#b85450;" vertex="1" parent="1">
          <mxGeometry x="680" y="840" width="100" height="40" as="geometry" />
        </mxCell>
        <mxCell id="aO45Ni_4_YtZBOvJ0jxf-29" value="block4" style="rounded=0;whiteSpace=wrap;html=1;fontSize=15;fillColor=#f5f5f5;strokeColor=#666666;fontColor=#333333;" vertex="1" parent="1">
          <mxGeometry x="780" y="840" width="100" height="40" as="geometry" />
        </mxCell>
        <mxCell id="aO45Ni_4_YtZBOvJ0jxf-30" value="Disk:" style="text;html=1;align=center;verticalAlign=middle;whiteSpace=wrap;rounded=0;fontSize=20;" vertex="1" parent="1">
          <mxGeometry x="290" y="840" width="100" height="40" as="geometry" />
        </mxCell>
      </root>
    </mxGraphModel>
  </diagram>
</mxfile>
